<?xml version="1.0" encoding="utf-8"?>
<!-- Generator: Adobe Illustrator 25.2.3, SVG Export Plug-In . SVG Version: 6.00 Build 0)  -->
<svg version="1.1" id="图层_1" xmlns="http://www.w3.org/2000/svg" xmlns:xlink="http://www.w3.org/1999/xlink" x="0px" y="0px"
	 viewBox="0 0 512 512" style="enable-background:new 0 0 512 512;" xml:space="preserve">
<style type="text/css">
	.st0{fill:#00B8F3;}
	.st1{fill:#FE9B97;}
	.st2{fill:#FE4366;}
	.st3{fill:#FFFFFF;}
</style>
<g>
	<path class="st0" d="M256,364.8c-23.2,12.6-50.6,19.9-79.9,19.9c-30.4,0-58.6-7.8-82.3-21.2l-55,26.5l17.8-56.3
		c-19.8-22.2-31.6-50-31.6-80.3C25,180.9,92.6,122,176,122c29.4,0,56.8,7.2,80,19.8c-42.7,23.2-71.1,64.4-71.1,111.5
		C184.9,300.3,213.3,341.6,256,364.8z"/>
	<path class="st1" d="M327.1,253.3c0,47-28.4,88.3-71.1,111.5c-42.7-23.2-71.1-64.5-71.1-111.5c0-47,28.4-88.3,71.1-111.5
		C298.7,165,327.1,206.2,327.1,253.3z"/>
	<path class="st2" d="M455.4,333.7l17.8,56.3l-55-26.5c-23.7,13.4-51.9,21.2-82.3,21.2c-29.3,0-56.7-7.3-79.9-19.9
		c42.7-23.2,71.1-64.5,71.1-111.5c0-47-28.4-88.3-71.1-111.5c23.2-12.6,50.6-19.8,80-19.8c83.4,0,151,58.9,151,131.4
		C487,283.7,475.2,311.5,455.4,333.7z"/>
	
		<ellipse transform="matrix(0.7071 -0.7071 0.7071 0.7071 -92.975 250.7561)" class="st0" cx="256.2" cy="237.6" rx="32.2" ry="32.2"/>
	
		<ellipse transform="matrix(0.7071 -0.7071 0.7071 0.7071 -84.3504 247.1888)" class="st3" cx="256.2" cy="225.4" rx="12.2" ry="12.2"/>
</g>
</svg>
